<svg xmlns="http://www.w3.org/2000/svg" version="1.1" viewBox="19 19 406 407">
<path d="M0 0 C105.93 0 211.86 0 321 0 C321 106.26 321 212.52 321 322 C215.07 322 109.14 322 0 322 C0 215.74 0 109.48 0 0 Z M14 15 C14 111.36 14 207.72 14 307 C110.69 307 207.38 307 307 307 C307 210.64 307 114.28 307 15 C210.31 15 113.62 15 14 15 Z " fill="#0B093B" transform="translate(62,61)"/>
<path d="M0 0 C82.17 0 164.34 0 249 0 C249 82.83 249 165.66 249 251 C166.5 251 84 251 -1 251 C-1 168.5 -1 86 -1 1 C-0.67 0.67 -0.34 0.34 0 0 Z M13 15 C13 88.26 13 161.52 13 237 C86.59 237 160.18 237 236 237 C236 163.74 236 90.48 236 15 C162.41 15 88.82 15 13 15 Z " fill="#0B093B" transform="translate(98,96)"/>
<path d="M0 0 C11.55 0 23.1 0 35 0 C35 4.95 35 9.9 35 15 C23.45 15 11.9 15 0 15 C0 10.05 0 5.1 0 0 Z " fill="#0A0939" transform="translate(390,358)"/>
<path d="M0 0 C11.55 0 23.1 0 35 0 C35 4.95 35 9.9 35 15 C23.45 15 11.9 15 0 15 C0 10.05 0 5.1 0 0 Z " fill="#0A093A" transform="translate(390,307)"/>
<path d="M0 0 C11.55 0 23.1 0 35 0 C35 4.95 35 9.9 35 15 C23.45 15 11.9 15 0 15 C0 10.05 0 5.1 0 0 Z " fill="#0B093A" transform="translate(390,281)"/>
<path d="M0 0 C11.55 0 23.1 0 35 0 C35 4.95 35 9.9 35 15 C23.45 15 11.9 15 0 15 C0 10.05 0 5.1 0 0 Z " fill="#0B0939" transform="translate(390,254)"/>
<path d="M0 0 C11.55 0 23.1 0 35 0 C35 4.95 35 9.9 35 15 C23.45 15 11.9 15 0 15 C0 10.05 0 5.1 0 0 Z " fill="#0B093A" transform="translate(390,228)"/>
<path d="M0 0 C11.55 0 23.1 0 35 0 C35 4.95 35 9.9 35 15 C23.45 15 11.9 15 0 15 C0 10.05 0 5.1 0 0 Z " fill="#0B0939" transform="translate(390,202)"/>
<path d="M0 0 C11.55 0 23.1 0 35 0 C35 4.95 35 9.9 35 15 C23.45 15 11.9 15 0 15 C0 10.05 0 5.1 0 0 Z " fill="#0B093A" transform="translate(390,98)"/>
<path d="M0 0 C11.55 0 23.1 0 35 0 C35 4.95 35 9.9 35 15 C23.45 15 11.9 15 0 15 C0 10.05 0 5.1 0 0 Z " fill="#0B0939" transform="translate(390,72)"/>
<path d="M0 0 C11.55 0 23.1 0 35 0 C35 4.62 35 9.24 35 14 C34.67 14.33 34.34 14.66 34 15 C22.78 15 11.56 15 0 15 C0 10.05 0 5.1 0 0 Z " fill="#0B0939" transform="translate(390,124)"/>
<path d="M0 0 C11.22 0 22.44 0 34 0 C34 4.95 34 9.9 34 15 C22.78 15 11.56 15 0 15 C0 10.05 0 5.1 0 0 Z " fill="#0B0939" transform="translate(19,358)"/>
<path d="M0 0 C11.22 0 22.44 0 34 0 C34 4.95 34 9.9 34 15 C22.78 15 11.56 15 0 15 C0 10.05 0 5.1 0 0 Z " fill="#0B0939" transform="translate(19,307)"/>
<path d="M0 0 C11.22 0 22.44 0 34 0 C34 4.95 34 9.9 34 15 C22.78 15 11.56 15 0 15 C0 10.05 0 5.1 0 0 Z " fill="#0B0939" transform="translate(19,281)"/>
<path d="M0 0 C11.22 0 22.44 0 34 0 C34 4.95 34 9.9 34 15 C22.78 15 11.56 15 0 15 C0 10.05 0 5.1 0 0 Z " fill="#0B0939" transform="translate(19,254)"/>
<path d="M0 0 C11.22 0 22.44 0 34 0 C34 4.95 34 9.9 34 15 C22.78 15 11.56 15 0 15 C0 10.05 0 5.1 0 0 Z " fill="#0B0939" transform="translate(19,228)"/>
<path d="M0 0 C11.22 0 22.44 0 34 0 C34 4.95 34 9.9 34 15 C22.78 15 11.56 15 0 15 C0 10.05 0 5.1 0 0 Z " fill="#0B0939" transform="translate(19,202)"/>
<path d="M0 0 C11.22 0 22.44 0 34 0 C34 4.95 34 9.9 34 15 C22.78 15 11.56 15 0 15 C0 10.05 0 5.1 0 0 Z " fill="#0B0939" transform="translate(19,124)"/>
<path d="M0 0 C11.22 0 22.44 0 34 0 C34 4.95 34 9.9 34 15 C22.78 15 11.56 15 0 15 C0 10.05 0 5.1 0 0 Z " fill="#0B0939" transform="translate(19,98)"/>
<path d="M0 0 C11.22 0 22.44 0 34 0 C34 4.95 34 9.9 34 15 C22.78 15 11.56 15 0 15 C0 10.05 0 5.1 0 0 Z " fill="#0B0939" transform="translate(19,72)"/>
<path d="M0 0 C4.62 0 9.24 0 14 0 C14 11.88 14 23.76 14 36 C9.38 36 4.76 36 0 36 C0 24.12 0 12.24 0 0 Z " fill="#0C0A3B" transform="translate(358,390)"/>
<path d="M0 0 C4.62 0 9.24 0 14 0 C14 11.88 14 23.76 14 36 C9.38 36 4.76 36 0 36 C0 24.12 0 12.24 0 0 Z " fill="#0B093C" transform="translate(332,390)"/>
<path d="M0 0 C4.62 0 9.24 0 14 0 C14 11.88 14 23.76 14 36 C9.38 36 4.76 36 0 36 C0 24.12 0 12.24 0 0 Z " fill="#0B093B" transform="translate(306,390)"/>
<path d="M0 0 C4.62 0 9.24 0 14 0 C14 11.88 14 23.76 14 36 C9.38 36 4.76 36 0 36 C0 24.12 0 12.24 0 0 Z " fill="#0B093C" transform="translate(253,390)"/>
<path d="M0 0 C4.62 0 9.24 0 14 0 C14 11.88 14 23.76 14 36 C9.38 36 4.76 36 0 36 C0 24.12 0 12.24 0 0 Z " fill="#0B093C" transform="translate(202,390)"/>
<path d="M0 0 C4.62 0 9.24 0 14 0 C14 11.88 14 23.76 14 36 C9.38 36 4.76 36 0 36 C0 24.12 0 12.24 0 0 Z " fill="#0B093C" transform="translate(176,390)"/>
<path d="M0 0 C4.62 0 9.24 0 14 0 C14 11.88 14 23.76 14 36 C9.38 36 4.76 36 0 36 C0 24.12 0 12.24 0 0 Z " fill="#0B093C" transform="translate(149,390)"/>
<path d="M0 0 C4.62 0 9.24 0 14 0 C14 11.88 14 23.76 14 36 C9.38 36 4.76 36 0 36 C0 24.12 0 12.24 0 0 Z " fill="#0B093C" transform="translate(123,390)"/>
<path d="M0 0 C4.62 0 9.24 0 14 0 C14 11.88 14 23.76 14 36 C9.38 36 4.76 36 0 36 C0 24.12 0 12.24 0 0 Z " fill="#0B093C" transform="translate(72,390)"/>
<path d="M0 0 C4.62 0 9.24 0 14 0 C14 11.88 14 23.76 14 36 C9.38 36 4.76 36 0 36 C0 24.12 0 12.24 0 0 Z " fill="#0B093B" transform="translate(358,19)"/>
<path d="M0 0 C4.62 0 9.24 0 14 0 C14 11.88 14 23.76 14 36 C9.38 36 4.76 36 0 36 C0 24.12 0 12.24 0 0 Z " fill="#0B093C" transform="translate(332,19)"/>
<path d="M0 0 C4.62 0 9.24 0 14 0 C14 11.88 14 23.76 14 36 C9.38 36 4.76 36 0 36 C0 24.12 0 12.24 0 0 Z " fill="#0B093B" transform="translate(306,19)"/>
<path d="M0 0 C4.62 0 9.24 0 14 0 C14 11.88 14 23.76 14 36 C9.38 36 4.76 36 0 36 C0 24.12 0 12.24 0 0 Z " fill="#0B093C" transform="translate(253,19)"/>
<path d="M0 0 C4.62 0 9.24 0 14 0 C14 11.88 14 23.76 14 36 C9.38 36 4.76 36 0 36 C0 24.12 0 12.24 0 0 Z " fill="#0B093C" transform="translate(202,19)"/>
<path d="M0 0 C4.62 0 9.24 0 14 0 C14 11.88 14 23.76 14 36 C9.38 36 4.76 36 0 36 C0 24.12 0 12.24 0 0 Z " fill="#0B093C" transform="translate(176,19)"/>
<path d="M0 0 C4.62 0 9.24 0 14 0 C14 11.88 14 23.76 14 36 C9.38 36 4.76 36 0 36 C0 24.12 0 12.24 0 0 Z " fill="#0B093C" transform="translate(149,19)"/>
<path d="M0 0 C4.62 0 9.24 0 14 0 C14 11.88 14 23.76 14 36 C9.38 36 4.76 36 0 36 C0 24.12 0 12.24 0 0 Z " fill="#0B093C" transform="translate(123,19)"/>
<path d="M0 0 C4.62 0 9.24 0 14 0 C14 11.88 14 23.76 14 36 C9.38 36 4.76 36 0 36 C0 24.12 0 12.24 0 0 Z " fill="#0B093C" transform="translate(72,19)"/>
<path d="M0 0 C11.55 0 23.1 0 35 0 C35 4.62 35 9.24 35 14 C23.45 14 11.9 14 0 14 C0 9.38 0 4.76 0 0 Z " fill="#0A0939" transform="translate(390,333)"/>
<path d="M0 0 C11.55 0 23.1 0 35 0 C35 4.62 35 9.24 35 14 C23.45 14 11.9 14 0 14 C0 9.38 0 4.76 0 0 Z " fill="#0B0939" transform="translate(390,177)"/>
<path d="M0 0 C11.55 0 23.1 0 35 0 C35 4.62 35 9.24 35 14 C23.45 14 11.9 14 0 14 C0 9.38 0 4.76 0 0 Z " fill="#0B0939" transform="translate(390,150)"/>
<path d="M0 0 C11.22 0 22.44 0 34 0 C34 4.62 34 9.24 34 14 C22.78 14 11.56 14 0 14 C0 9.38 0 4.76 0 0 Z " fill="#0B0939" transform="translate(19,333)"/>
<path d="M0 0 C11.22 0 22.44 0 34 0 C34 4.62 34 9.24 34 14 C22.78 14 11.56 14 0 14 C0 9.38 0 4.76 0 0 Z " fill="#0B0939" transform="translate(19,177)"/>
<path d="M0 0 C11.22 0 22.44 0 34 0 C34 4.62 34 9.24 34 14 C22.78 14 11.56 14 0 14 C0 9.38 0 4.76 0 0 Z " fill="#0B0939" transform="translate(19,150)"/>
<path d="M0 0 C4.29 0 8.58 0 13 0 C13 11.88 13 23.76 13 36 C8.71 36 4.42 36 0 36 C0 24.12 0 12.24 0 0 Z " fill="#0B093B" transform="translate(281,390)"/>
<path d="M0 0 C4.29 0 8.58 0 13 0 C13 11.88 13 23.76 13 36 C8.71 36 4.42 36 0 36 C0 24.12 0 12.24 0 0 Z " fill="#0B093C" transform="translate(228,390)"/>
<path d="M0 0 C4.29 0 8.58 0 13 0 C13 11.88 13 23.76 13 36 C8.71 36 4.42 36 0 36 C0 24.12 0 12.24 0 0 Z " fill="#0B093C" transform="translate(98,390)"/>
<path d="M0 0 C4.29 0 8.58 0 13 0 C13 11.88 13 23.76 13 36 C8.71 36 4.42 36 0 36 C0 24.12 0 12.24 0 0 Z " fill="#0B093B" transform="translate(281,19)"/>
<path d="M0 0 C4.29 0 8.58 0 13 0 C13 11.88 13 23.76 13 36 C8.71 36 4.42 36 0 36 C0 24.12 0 12.24 0 0 Z " fill="#0B093C" transform="translate(228,19)"/>
<path d="M0 0 C4.29 0 8.58 0 13 0 C13 11.88 13 23.76 13 36 C8.71 36 4.42 36 0 36 C0 24.12 0 12.24 0 0 Z " fill="#0B093C" transform="translate(98,19)"/>
</svg>