<svg xmlns="http://www.w3.org/2000/svg" width="2000" height="674">
    <path fill="#0B093D" d="M62.671 171.07h321.097v320.864H62.67Zm14 13.99v292.876h293.097V185.06Z"/>
    <path fill="#0B093D" d="M98.67 206.056h249.098v249.897H97.667V207.051Zm13.013 13.99v222.913h223.065V220.045Z"/>
    <path fill="#F34212" d="M1731.267 147.073h18.008l6.996 10 14.008 21.992 16 24.985 16.007 24.993 14.008 21.99 8 11.992 1.004-115.952h22.008V305.01h-18.008l-15.004-22.987-14.008-21.991-16-24.993-14.007-21.991-16-24.985-1.004 116.947h-22.008Zm-934.34-.995h19.003l15.012 1.998 12 3.997 8 5.996 7.004 7.994 6 13.002 4 19.985 1.004 13.002v28.981l-2 19.993-4 15.996-7.004 12.994-9.004 7.994-8 3.997-12 3.002-7.004 1.003h-26.015l-17.004-3.002-12-5.995-6.008-5-6-8.998-5.004-13.989-2.996-19.993V204.05l2.996-18.99 5.004-14.992 8-10.996 10.008-6.999 12-3.997Zm3.003 19.985-14.007 3.001-9.004 6.004-6 11.99-3.004 11.992-.996 9.005v37.979l2 13.997 4 11.99 7.004 7.995 8 3.997 9.003 2.006h19.004l12-3.002 6.008-3.997 6-6.998 4-10.996 2.008-12.994v-42.98l-3.004-16.99-4-10-7.004-6.999-11.004-3.997-8-.995Zm779.283-19.985h19.004l19.004 2.994 12 6.003 7.011 5.996 6 9.992 4 10 3.004 14.993.996 8.997v42.98l-2.996 19.992-4 11.99-5.004 9.006-8 7.994-12.007 5.995-17.004 3.002h-26.016l-16-3.002-9.004-3.997-8-5.995-5.004-6.004-5.003-9.992-4-14.993-2-18.99v-31.99l2-18.99 4-15.988 6-11.999 9.003-8.997 10.008-5 13.004-3.002Zm2.996 19.985-12 2.006-8 3.997-7.004 7.994-4 10.996-2.008 10.995-.996 12.994v22.995l2 19.985 4 13.001 6 7.994 6 3.997 13.012 3.002h18l13.004-3.002 8-5.995 5.011-7.994 2.996-10.996 2-16.999v-28.981l-2-17.995-4-12.994-6-7.994-6.007-3.997-6.996-2.006-8-.995Z"/>
    <path fill="#F34212" d="M996 338.998h22.008v70.974h72.023v-70.974h22.008v157.936h-22.008v-66.97h-72.023v66.97H996Zm77.027-191.925h22.008v70.974h72.023v-70.974h22.008V305.01h-22.008v-66.97h-72.023v66.97h-22.008Zm328.116 0h65.02l14.007 1.999 9.004 3.997 6.008 3.997 6 9.005 4 9.992 2 11.991v21.999l-3.004 15.988-6.996 12.994-8 6.999-8.008 3.997-10.008 1.998h-21.003l-27.012-1.998v54.978h-22.008Zm22.008 19.993v64.97h42.015l9.004-2.993 7.004-7.994 3.004-8.997.996-15.996-2-12.994-4-7.994-7.004-6.004-10-1.998ZM775.923 338.998l49.019 1.004 22 .995v18.997l-65.02.996-7.003 3.001-4 5.996-1.004 37.987 65.02.995 2.007 1.003v16.991l-19.012 1.003-47.011.996v36.991l3.004 5.996 4.996 2.994 5.004 1.003 63.019.995v17.994l-6 1.003-19.004.996-40.015 1.003-15.004-1.999-9.004-3.997-8-8.997-2.008-6.003-.996-7.994V367.988l2.996-11.99 6.008-8.998 10-6.003Zm474.17-191.925 42.015 1.003 25.004.996 1.004 1.003v17.994l-64.023.995-9.004 3.002-3.004 9.993-.996 33.99 59.02.995 9.003 1.003v16.991l-13.004 1.003-55.019.996.996 33.99 3.004 8.997 5.004 2.993 4 1.004 64.023.995v17.994l-3.004 1.003-47.011 1.999h-18.008l-12-1.999-10.008-5-5.004-5.995-4-10.996v-108.96l2.996-9.993 6.008-7.994 10-6.003Z"/>
    <path fill="#F34212" d="M507.822 7.132h10v658.733h-10Z"/>
    <path fill="#F34212" d="M915.969 338.003h21.004l23.012 2.994 12 3.002v16.99l-15.004-.995-13.004-1.003h-22.008l-13.004 3.002-7.004 5-4.996 8.99-3.004 10-2 14.992v33.99l2 15.988 4 11.99 4 6.004 5.004 3.997 8 3.002 7.004.995h26.008l24.015-1.998v17.994l-21.011 3.997-12 1.003h-24.008l-16.008-3.002-10.008-5-8-7.994-7.003-13.997-2.997-11.991-2-16.991v-41.984l2.997-19.993 5.003-14.992 6-8.997 7.004-6.999 10-5Zm-300.108-190.93h116.038v19.993l-.996 1.003h-46.015v136.94h-23.012v-136.94h-46.015Z"/>
    <path fill="#F34212" d="M615.86 338.998H731.9v19.993h-47.012v137.943h-23.012V358.999h-46.015Z"/>
    <path fill="#F34212" d="M938.98 147.073h116.04v20.996H1008v136.94h-22.008v-136.94h-47.011Zm924.334 0h116.038v19.993l-.996 1.003h-46.015v136.94h-22.008v-136.94h-47.02Z"/>
    <path fill="#F34212" d="M1676.248 147.073h23.004V305.01h-23.004Z"/>
    <path fill="#F34212" d="M1654.24 563.91h6.996l16.008 24.993 16 24.985 8.008 11.991 1.003-61.969h7.004v77.973h-6.007l-15.004-22.995-16-24.985-9.004-13.997-1.004 61.977h-8Z"/>
    <path fill="#F34212" d="M738.903 563.91h35.012l7.004 1.999 5.004 5 3.003 6.999v16.99l-5.003 10.001-6 2.994h-3.004l13.004 27.986 2 6.004h-7.004l-8-15.996-8-15.988-21.012-1.003v32.987h-7.004Zm7.004 5.996V602.9h28.008l5.004-3.002 3.004-6.999v-12.994l-3.004-5.995-4-3.002-6-1.003Zm459.167-6.99 16 1.998 6.007 3.997 4 5 3.004 8.997.996 5.995v27.987l-2.996 12.994-4 5.995-5.004 3.997-7.004 2.007h-20l-9.011-3.002-4.996-5-4-7.994-2.008-13.997v-17.987l2-13.001 4-8.99 7.004-6.003 6.008-1.999Zm-7.004 6.99-8 3.997-4 6.003-2 6.999-1.004 7.994v16.99l2 11.992 3.004 6.003 4 3.997 8 1.998h11.004l9.003-2.993 4-3.997 3.004-6.999 1.004-6.003v-25.98l-3.004-11.991-4-5-8-3.002Zm388.139-6.99 12 .994 10.008 5 5.004 7.995 2 7.993 1.004 10v15.989l-2 15-5.004 9.992-8 5-5.004 1.004h-20.008l-8-3.002-6.008-5-4-9.992-.996-7v-27.986l2.996-11.99 4-7.007 5.004-3.997 6-1.999Zm-6.996 6.99-7.004 3.002-5.004 5.995-3.004 10.996v26.99l3.004 10.997 4 5 9.004 2.993h12l9.012-2.993 4.996-6.004 2-6.99 1.004-10v-13.99l-2-13.997-3.004-5.996-6-5-4-1.003Zm-661.244-6.99 17.004.994 9.004 1.999v5h-30.008l-6 3.002-4 4.992-2.008 6.999-.996 8.997v16.99l2 11.992 3.004 6.003 2.996 3.002 8 1.998 12.008-1.003 10.008-2.994.996-23.99h-20v-5l1.992-1.003h25.012v40.989h-6v-5l-15.004 5h-15.012l-8-3.002-6-6.999-3.004-9.992-.996-8.997V592.9l2-12.994 4.996-10 5.004-3.997 5.004-1.999Z"/>
    <path fill="#F34212" d="M1336.124 563.91h7.004v36.992h41.011V563.91h7.004v77.973h-7.004v-34.986h-41.02v34.986h-6.995Z"/>
    <path fill="#F34212" d="M824.942 563.91h8.996l22.008 62.972 4 10.996v3.997h-6.996l-8-21.983v-1.999h-32.016l-3.004 10.996-5.004 12.994h-6.996l.996-6.004 18.008-51.976 7.004-18.99Zm2.996 8.998-12 34.985v3.001h26.008l-2.008-8.997-10-28.99Z"/>
    <path fill="#F34212" d="M962.98 563.91h7.012v36.992H1010V563.91h7.004v77.973H1010v-34.986h-40.008v34.986h-7.004Z"/>
    <path fill="#F34212" d="M1496.178 563.91h35.012l8 3.002 5.003 5.996 2 5.995V597.9l-2.996 7.994-7.003 5.996-9.004 1.998-24.008-.995v28.99h-7.004Zm7.004 5.996v36.991h26.008l6-3.001 4-7.994v-15.008l-2.996-5.996-5.004-3.997-4.996-1.003Z"/>
    <path fill="#F34212" d="M1417.151 563.91h24.008l13.004 1.004v5.995l-35.012 1.003-4 3.997-1.004 23.982h35.012v6.003h-35.012l1.004 24.993 3.004 2.994 36.008 1.003v5.996l-12 1.003h-25.012l-8-3.997-2-3.997v-60.974l4-6.003Z"/>
    <path fill="#F34212" d="m640.864 562.915 22.016 1.999v5.995h-28.016l-6 1.999-2 5.995v12.994l2 3.997 5.004 2.006 18.008.996 7.004 1.998 4.996 5 2 3.002 1.004 4.992v11.991l-3.004 9.005-6 5-7.004 1.999h-24l-8.007-1.003v-5.996h28.007l9.004-3.002 3.004-5v-11.99l-3.004-5.996-4-1.999-19.012-1.003-8-3.001-5.003-5.996-.996-3.997v-14.992l2.996-7.994 5.004-3.997 5.003-2.007Z"/>
    <path fill="#F34212" d="M1717.26 563.91h56.023v5.996l-1.004 1.003h-24.008v70.974h-7.004v-70.974h-24Z"/>
    <path fill="#F34212" d="M1271.097 563.91h56.023v7h-24.008v70.973h-7.004v-70.974h-24.007l-1.004-1.003Z"/>
    <path fill="#F34212" d="M1113.043 563.91h56.015v7h-24v70.973h-7.012v-70.974h-24l-1.003-1.003Zm-87.035 0h56.023v7h-24.008v70.973h-7.004v-70.974h-24.007l-1.004-1.003Z"/>
    <path fill="#F34212" d="M673.884 563.91h56.015v7h-24v70.973h-7.011v-70.974h-24l-1.004-1.003Z"/>
    <path fill="#F34212" d="M1630.224 563.91h7.004v77.973h-7.004Zm-758.27 0h7.003v77.973h-7.003Z"/>
    <path fill="#0B093D" d="M358.772 499.935h14v34.986h-14Z"/>
    <path fill="#0B093D" d="M332.756 499.935h14.008v34.986h-14.008Z"/>
    <path fill="#0B093D" d="M306.748 499.935h14.008v34.986h-14.008Z"/>
    <path fill="#0B093D" d="M253.729 499.935h14.008v34.986h-14.008Z"/>
    <path fill="#0B093D" d="M202.71 499.935h14.007v34.986H202.71Z"/>
    <path fill="#0B093D" d="M176.71 499.935h14v34.986h-14.008Z"/>
    <path fill="#0B093D" d="M149.69 499.935h14.008v34.986H149.69Z"/>
    <path fill="#0B093D" d="M123.69 499.935h14v34.986h-14.007Z"/>
    <path fill="#0B093D" d="M72.663 499.935h14.008v34.986H72.663Zm318.116-31.983h35.012v13.99h-35.012Z"/>
    <path fill="#0B093D" d="M390.78 416.97h35.011v13.99h-35.012Z"/>
    <path fill="#0B093D" d="M390.78 390.983h35.011v13.989h-35.012Z"/>
    <path fill="#0B093D" d="M390.78 363.991h35.011v13.99h-35.012Z"/>
    <path fill="#0B093D" d="M390.78 338.003h35.011v13.99h-35.012Z"/>
    <path fill="#0B093D" d="M390.78 312.007h35.011v13.997h-35.012Zm0-77.964h35.011v13.99h-35.012Z"/>
    <path fill="#0B093D" d="M390.78 208.047h35.011v13.997h-35.012Z"/>
    <path fill="#0B093D" d="M390.78 182.059h35.011v13.997h-35.012Z"/>
    <path fill="#0B093D" d="M358.772 129.08h14v34.984h-14Z"/>
    <path fill="#0B093D" d="M332.756 129.08h14.008v34.984h-14.008Z"/>
    <path fill="#0B093D" d="M306.748 129.08h14.008v34.984h-14.008Zm-53.019 0h14.008v34.984h-14.008Zm-51.02 0h14.008v34.984H202.71Zm-26 0h14v34.984h-14.007Zm-27.019 0h14.008v34.984H149.69Zm-26 0h14v34.984h-14.007Zm-51.027 0h14.008v34.984H72.663Zm-53.02 338.872H53.66v13.99H19.644Z"/>
    <path fill="#0B093D" d="M19.644 416.97h34.015v13.99H19.644Z"/>
    <path fill="#0B093D" d="M19.644 390.983h34.015v13.989H19.644Z"/>
    <path fill="#0B093D" d="M19.644 363.991h34.015v13.99H19.644Z"/>
    <path fill="#0B093D" d="M19.644 338.003h34.015v13.99H19.644Z"/>
    <path fill="#0B093D" d="M19.644 312.007h34.015v13.997H19.644Zm0-77.964h34.015v13.99H19.644Z"/>
    <path fill="#0B093D" d="M19.644 208.047h34.015v13.997H19.644Zm0-25.988h34.015v13.997H19.644Z"/>
    <path fill="#0B093D" d="M281.737 499.935h13.011v34.986h-13.02Z"/>
    <path fill="#0B093D" d="M228.717 499.935h13.012v34.986h-13.02Zm-130.046 0h13.004v34.986H98.67Z"/>
    <path fill="#0B093D" d="M390.78 442.959h35.011v12.994h-35.012Zm0-155.937h35.011v12.994h-35.012Zm0-26.991h35.011v12.994h-35.012Z"/>
    <path fill="#0B093D" d="M281.737 129.08h13.011v34.984h-13.02Zm-53.02 0h13.012v34.984h-13.02Zm-130.046 0h13.004v34.984H98.67ZM19.644 442.958h34.015v12.994H19.644Z"/>
    <path fill="#0B093D" d="M19.644 287.022h34.015v12.994H19.644Zm0-26.991h34.015v12.994H19.644Z"/>
</svg>
