<svg xmlns="http://www.w3.org/2000/svg" width="2000" height="674">
    <path fill="#0B093D" d="M62.671 171.07h321.097v320.864H62.67Zm14 13.99v292.876h293.097V185.06Z"/>
    <path fill="#0B093D" d="M98.67 206.056h249.098v249.897H97.667V207.051Zm13.013 13.99v222.913h223.065V220.045Z"/>
    <g transform="translate(0 10)">
    <path fill="#F34212" d="M1731.267 147.073h18.008l6.996 10 14.008 21.992 16 24.985 16.007 24.993 14.008 21.99 8 11.992 1.004-115.952h22.008V305.01h-18.008l-15.004-22.987-14.008-21.991-16-24.993-14.007-21.991-16-24.985-1.004 116.947h-22.008Zm-934.34-.995h19.003l15.012 1.998 12 3.997 8 5.996 7.004 7.994 6 13.002 4 19.985 1.004 13.002v28.981l-2 19.993-4 15.996-7.004 12.994-9.004 7.994-8 3.997-12 3.002-7.004 1.003h-26.015l-17.004-3.002-12-5.995-6.008-5-6-8.998-5.004-13.989-2.996-19.993V204.05l2.996-18.99 5.004-14.992 8-10.996 10.008-6.999 12-3.997Zm3.003 19.985-14.007 3.001-9.004 6.004-6 11.99-3.004 11.992-.996 9.005v37.979l2 13.997 4 11.99 7.004 7.995 8 3.997 9.003 2.006h19.004l12-3.002 6.008-3.997 6-6.998 4-10.996 2.008-12.994v-42.98l-3.004-16.99-4-10-7.004-6.999-11.004-3.997-8-.995Zm779.283-19.985h19.004l19.004 2.994 12 6.003 7.011 5.996 6 9.992 4 10 3.004 14.993.996 8.997v42.98l-2.996 19.992-4 11.99-5.004 9.006-8 7.994-12.007 5.995-17.004 3.002h-26.016l-16-3.002-9.004-3.997-8-5.995-5.004-6.004-5.003-9.992-4-14.993-2-18.99v-31.99l2-18.99 4-15.988 6-11.999 9.003-8.997 10.008-5 13.004-3.002Zm2.996 19.985-12 2.006-8 3.997-7.004 7.994-4 10.996-2.008 10.995-.996 12.994v22.995l2 19.985 4 13.001 6 7.994 6 3.997 13.012 3.002h18l13.004-3.002 8-5.995 5.011-7.994 2.996-10.996 2-16.999v-28.981l-2-17.995-4-12.994-6-7.994-6.007-3.997-6.996-2.006-8-.995Z"/>
    <path fill="#F34212" d="M996 338.998h22.008v70.974h72.023v-70.974h22.008v157.936h-22.008v-66.97h-72.023v66.97H996Zm77.027-191.925h22.008v70.974h72.023v-70.974h22.008V305.01h-22.008v-66.97h-72.023v66.97h-22.008Zm328.116 0h65.02l14.007 1.999 9.004 3.997 6.008 3.997 6 9.005 4 9.992 2 11.991v21.999l-3.004 15.988-6.996 12.994-8 6.999-8.008 3.997-10.008 1.998h-21.003l-27.012-1.998v54.978h-22.008Zm22.008 19.993v64.97h42.015l9.004-2.993 7.004-7.994 3.004-8.997.996-15.996-2-12.994-4-7.994-7.004-6.004-10-1.998ZM775.923 338.998l49.019 1.004 22 .995v18.997l-65.02.996-7.003 3.001-4 5.996-1.004 37.987 65.02.995 2.007 1.003v16.991l-19.012 1.003-47.011.996v36.991l3.004 5.996 4.996 2.994 5.004 1.003 63.019.995v17.994l-6 1.003-19.004.996-40.015 1.003-15.004-1.999-9.004-3.997-8-8.997-2.008-6.003-.996-7.994V367.988l2.996-11.99 6.008-8.998 10-6.003Zm474.17-191.925 42.015 1.003 25.004.996 1.004 1.003v17.994l-64.023.995-9.004 3.002-3.004 9.993-.996 33.99 59.02.995 9.003 1.003v16.991l-13.004 1.003-55.019.996.996 33.99 3.004 8.997 5.004 2.993 4 1.004 64.023.995v17.994l-3.004 1.003-47.011 1.999h-18.008l-12-1.999-10.008-5-5.004-5.995-4-10.996v-108.96l2.996-9.993 6.008-7.994 10-6.003Z"/>
    <path fill="#F34212" d="M507.822 7.132h10v629.733h-10Z"/>
    <path fill="#F34212" d="M915.969 338.003h21.004l23.012 2.994 12 3.002v16.99l-15.004-.995-13.004-1.003h-22.008l-13.004 3.002-7.004 5-4.996 8.99-3.004 10-2 14.992v33.99l2 15.988 4 11.99 4 6.004 5.004 3.997 8 3.002 7.004.995h26.008l24.015-1.998v17.994l-21.011 3.997-12 1.003h-24.008l-16.008-3.002-10.008-5-8-7.994-7.003-13.997-2.997-11.991-2-16.991v-41.984l2.997-19.993 5.003-14.992 6-8.997 7.004-6.999 10-5Zm-300.108-190.93h116.038v19.993l-.996 1.003h-46.015v136.94h-23.012v-136.94h-46.015Z"/>
    <path fill="#F34212" d="M615.86 338.998H731.9v19.993h-47.012v137.943h-23.012V358.999h-46.015Z"/>
    <path fill="#F34212" d="M938.98 147.073h116.04v20.996H1008v136.94h-22.008v-136.94h-47.011Zm924.334 0h116.038v19.993l-.996 1.003h-46.015v136.94h-22.008v-136.94h-47.02Z"/>
    <path fill="#F34212" d="M1676.248 147.073h23.004V305.01h-23.004Z"/>
    </g>
    <path fill="#0B093D" d="M358.772 499.935h14v34.986h-14Z"/>
    <path fill="#0B093D" d="M332.756 499.935h14.008v34.986h-14.008Z"/>
    <path fill="#0B093D" d="M306.748 499.935h14.008v34.986h-14.008Z"/>
    <path fill="#0B093D" d="M253.729 499.935h14.008v34.986h-14.008Z"/>
    <path fill="#0B093D" d="M202.71 499.935h14.007v34.986H202.71Z"/>
    <path fill="#0B093D" d="M176.71 499.935h14v34.986h-14.008Z"/>
    <path fill="#0B093D" d="M149.69 499.935h14.008v34.986H149.69Z"/>
    <path fill="#0B093D" d="M123.69 499.935h14v34.986h-14.007Z"/>
    <path fill="#0B093D" d="M72.663 499.935h14.008v34.986H72.663Zm318.116-31.983h35.012v13.99h-35.012Z"/>
    <path fill="#0B093D" d="M390.78 416.97h35.011v13.99h-35.012Z"/>
    <path fill="#0B093D" d="M390.78 390.983h35.011v13.989h-35.012Z"/>
    <path fill="#0B093D" d="M390.78 363.991h35.011v13.99h-35.012Z"/>
    <path fill="#0B093D" d="M390.78 338.003h35.011v13.99h-35.012Z"/>
    <path fill="#0B093D" d="M390.78 312.007h35.011v13.997h-35.012Zm0-77.964h35.011v13.99h-35.012Z"/>
    <path fill="#0B093D" d="M390.78 208.047h35.011v13.997h-35.012Z"/>
    <path fill="#0B093D" d="M390.78 182.059h35.011v13.997h-35.012Z"/>
    <path fill="#0B093D" d="M358.772 129.08h14v34.984h-14Z"/>
    <path fill="#0B093D" d="M332.756 129.08h14.008v34.984h-14.008Z"/>
    <path fill="#0B093D" d="M306.748 129.08h14.008v34.984h-14.008Zm-53.019 0h14.008v34.984h-14.008Zm-51.02 0h14.008v34.984H202.71Zm-26 0h14v34.984h-14.007Zm-27.019 0h14.008v34.984H149.69Zm-26 0h14v34.984h-14.007Zm-51.027 0h14.008v34.984H72.663Zm-53.02 338.872H53.66v13.99H19.644Z"/>
    <path fill="#0B093D" d="M19.644 416.97h34.015v13.99H19.644Z"/>
    <path fill="#0B093D" d="M19.644 390.983h34.015v13.989H19.644Z"/>
    <path fill="#0B093D" d="M19.644 363.991h34.015v13.99H19.644Z"/>
    <path fill="#0B093D" d="M19.644 338.003h34.015v13.99H19.644Z"/>
    <path fill="#0B093D" d="M19.644 312.007h34.015v13.997H19.644Zm0-77.964h34.015v13.99H19.644Z"/>
    <path fill="#0B093D" d="M19.644 208.047h34.015v13.997H19.644Zm0-25.988h34.015v13.997H19.644Z"/>
    <path fill="#0B093D" d="M281.737 499.935h13.011v34.986h-13.02Z"/>
    <path fill="#0B093D" d="M228.717 499.935h13.012v34.986h-13.02Zm-130.046 0h13.004v34.986H98.67Z"/>
    <path fill="#0B093D" d="M390.78 442.959h35.011v12.994h-35.012Zm0-155.937h35.011v12.994h-35.012Zm0-26.991h35.011v12.994h-35.012Z"/>
    <path fill="#0B093D" d="M281.737 129.08h13.011v34.984h-13.02Zm-53.02 0h13.012v34.984h-13.02Zm-130.046 0h13.004v34.984H98.67ZM19.644 442.958h34.015v12.994H19.644Z"/>
    <path fill="#0B093D" d="M19.644 287.022h34.015v12.994H19.644Zm0-26.991h34.015v12.994H19.644Z"/>
</svg>
