<svg xmlns="http://www.w3.org/2000/svg" viewBox="0 0 542 542" width="542" height="542">
  <rect width="100%" height="100%" fill="transparent"/>
  <g transform="translate(5.5, 5.5)">
  <path fill="#0C0A3E" d="M471.87 469.807H61.232V59.158H471.87zM77.734 453.295h377.623V75.67H77.734z"/>
  <path fill="#0C0A3E" d="M426.469 424.406H106.622V104.56h319.847zm-303.346-16.512h286.834V121.072H123.123z"/>
  <rect width="1.505" height="3.949" x="-.752" y="-1.974" fill="#0C0A3E" rx="0" ry="0" transform="matrix(10.9717 0 0 10.9717 449.164 27.181)"/>
  <rect width="1.504" height="3.949" x="-.752" y="-1.974" fill="#0C0A3E" rx="0" ry="0" transform="matrix(10.9717 0 0 10.9717 416.156 27.181)"/>
  <rect width="1.505" height="3.949" x="-.752" y="-1.974" fill="#0C0A3E" rx="0" ry="0" transform="matrix(10.9717 0 0 10.9717 383.136 27.181)"/>
  <rect width="1.505" height="3.949" x="-.752" y="-1.974" fill="#0C0A3E" rx="0" ry="0" transform="matrix(10.9717 0 0 10.9717 350.122 27.181)"/>
  <rect width="1.505" height="3.949" x="-.752" y="-1.974" fill="#0C0A3E" rx="0" ry="0" transform="matrix(10.9717 0 0 10.9717 315.046 27.181)"/>
  <rect width="1.505" height="3.949" x="-.752" y="-1.974" fill="#0C0A3E" rx="0" ry="0" transform="matrix(10.9717 0 0 10.9717 282.021 27.181)"/>
  <rect width="1.505" height="3.949" x="-.752" y="-1.974" fill="#0C0A3E" rx="0" ry="0" transform="matrix(10.9717 0 0 10.9717 249.007 27.181)"/>
  <rect width="1.504" height="3.949" x="-.752" y="-1.974" fill="#0C0A3E" rx="0" ry="0" transform="matrix(10.9717 0 0 10.9717 215.988 27.181)"/>
  <rect width="1.504" height="3.949" x="-.752" y="-1.974" fill="#0C0A3E" rx="0" ry="0" transform="matrix(10.9717 0 0 10.9717 180.911 27.181)"/>
  <rect width="1.504" height="3.949" x="-.752" y="-1.974" fill="#0C0A3E" rx="0" ry="0" transform="matrix(10.9717 0 0 10.9717 147.887 27.181)"/>
  <rect width="1.505" height="3.949" x="-.752" y="-1.974" fill="#0C0A3E" rx="0" ry="0" transform="matrix(10.9717 0 0 10.9717 114.878 27.181)"/>
  <rect width="1.505" height="3.949" x="-.752" y="-1.974" fill="#0C0A3E" rx="0" ry="0" transform="matrix(10.9717 0 0 10.9717 81.864 27.181)"/>
  <rect width="1.505" height="3.949" x="-.752" y="-1.974" fill="#0C0A3E" rx="0" ry="0" transform="matrix(10.9717 0 0 10.9717 449.164 503.847)"/>
  <rect width="1.504" height="3.949" x="-.752" y="-1.974" fill="#0C0A3E" rx="0" ry="0" transform="matrix(10.9717 0 0 10.9717 416.156 503.847)"/>
  <rect width="1.505" height="3.949" x="-.752" y="-1.974" fill="#0C0A3E" rx="0" ry="0" transform="matrix(10.9717 0 0 10.9717 383.136 503.847)"/>
  <rect width="1.505" height="3.949" x="-.752" y="-1.974" fill="#0C0A3E" rx="0" ry="0" transform="matrix(10.9717 0 0 10.9717 350.122 503.847)"/>
  <rect width="1.505" height="3.949" x="-.752" y="-1.974" fill="#0C0A3E" rx="0" ry="0" transform="matrix(10.9717 0 0 10.9717 315.046 503.847)"/>
  <rect width="1.505" height="3.949" x="-.752" y="-1.974" fill="#0C0A3E" rx="0" ry="0" transform="matrix(10.9717 0 0 10.9717 282.021 503.847)"/>
  <rect width="1.505" height="3.949" x="-.752" y="-1.974" fill="#0C0A3E" rx="0" ry="0" transform="matrix(10.9717 0 0 10.9717 249.007 503.847)"/>
  <rect width="1.504" height="3.949" x="-.752" y="-1.974" fill="#0C0A3E" rx="0" ry="0" transform="matrix(10.9717 0 0 10.9717 215.988 503.847)"/>
  <rect width="1.504" height="3.949" x="-.752" y="-1.974" fill="#0C0A3E" rx="0" ry="0" transform="matrix(10.9717 0 0 10.9717 180.911 503.847)"/>
  <rect width="1.504" height="3.949" x="-.752" y="-1.974" fill="#0C0A3E" rx="0" ry="0" transform="matrix(10.9717 0 0 10.9717 147.887 503.847)"/>
  <rect width="1.505" height="3.949" x="-.752" y="-1.974" fill="#0C0A3E" rx="0" ry="0" transform="matrix(10.9717 0 0 10.9717 114.878 503.847)"/>
  <rect width="1.505" height="3.949" x="-.752" y="-1.974" fill="#0C0A3E" rx="0" ry="0" transform="matrix(10.9717 0 0 10.9717 81.864 503.847)"/>
  <rect width="3.95" height="1.504" x="-1.975" y="-.752" fill="#0C0A3E" rx="0" ry="0" transform="matrix(10.9717 0 0 10.9717 27.176 81.859)"/>
  <rect width="3.95" height="1.505" x="-1.975" y="-.752" fill="#0C0A3E" rx="0" ry="0" transform="matrix(10.9717 0 0 10.9717 27.176 114.89)"/>
  <rect width="3.95" height="1.505" x="-1.975" y="-.752" fill="#0C0A3E" rx="0" ry="0" transform="matrix(10.9717 0 0 10.9717 27.176 147.892)"/>
  <rect width="3.95" height="1.504" x="-1.975" y="-.752" fill="#0C0A3E" rx="0" ry="0" transform="matrix(10.9717 0 0 10.9717 27.176 180.911)"/>
  <rect width="3.95" height="1.505" x="-1.975" y="-.752" fill="#0C0A3E" rx="0" ry="0" transform="matrix(10.9717 0 0 10.9717 27.176 215.982)"/>
  <rect width="3.95" height="1.505" x="-1.975" y="-.752" fill="#0C0A3E" rx="0" ry="0" transform="matrix(10.9717 0 0 10.9717 27.176 248.996)"/>
  <rect width="3.95" height="1.505" x="-1.975" y="-.752" fill="#0C0A3E" rx="0" ry="0" transform="matrix(10.9717 0 0 10.9717 27.176 282.032)"/>
  <rect width="3.95" height="1.505" x="-1.975" y="-.752" fill="#0C0A3E" rx="0" ry="0" transform="matrix(10.9717 0 0 10.9717 27.176 315.046)"/>
  <rect width="3.95" height="1.504" x="-1.975" y="-.752" fill="#0C0A3E" rx="0" ry="0" transform="matrix(10.9717 0 0 10.9717 27.176 350.117)"/>
  <rect width="3.95" height="1.506" x="-1.975" y="-.753" fill="#0C0A3E" rx="0" ry="0" transform="matrix(10.9717 0 0 10.9717 27.176 383.142)"/>
  <rect width="3.95" height="1.506" x="-1.975" y="-.753" fill="#0C0A3E" rx="0" ry="0" transform="matrix(10.9717 0 0 10.9717 27.176 416.156)"/>
  <rect width="3.95" height="1.504" x="-1.975" y="-.752" fill="#0C0A3E" rx="0" ry="0" transform="matrix(10.9717 0 0 10.9717 27.176 449.17)"/>
  <rect width="3.95" height="1.504" x="-1.975" y="-.752" fill="#0C0A3E" rx="0" ry="0" transform="matrix(10.9717 0 0 10.9717 503.852 81.859)"/>
  <rect width="3.95" height="1.505" x="-1.975" y="-.752" fill="#0C0A3E" rx="0" ry="0" transform="matrix(10.9717 0 0 10.9717 503.852 114.89)"/>
  <rect width="3.95" height="1.505" x="-1.975" y="-.752" fill="#0C0A3E" rx="0" ry="0" transform="matrix(10.9717 0 0 10.9717 503.852 147.892)"/>
  <rect width="3.95" height="1.504" x="-1.975" y="-.752" fill="#0C0A3E" rx="0" ry="0" transform="matrix(10.9717 0 0 10.9717 503.852 180.911)"/>
  <rect width="3.95" height="1.505" x="-1.975" y="-.752" fill="#0C0A3E" rx="0" ry="0" transform="matrix(10.9717 0 0 10.9717 503.852 215.982)"/>
  <rect width="3.95" height="1.505" x="-1.975" y="-.752" fill="#0C0A3E" rx="0" ry="0" transform="matrix(10.9717 0 0 10.9717 503.852 248.996)"/>
  <rect width="3.95" height="1.505" x="-1.975" y="-.752" fill="#0C0A3E" rx="0" ry="0" transform="matrix(10.9717 0 0 10.9717 503.852 282.032)"/>
  <rect width="3.95" height="1.505" x="-1.975" y="-.752" fill="#0C0A3E" rx="0" ry="0" transform="matrix(10.9717 0 0 10.9717 503.852 315.046)"/>
  <rect width="3.95" height="1.504" x="-1.975" y="-.752" fill="#0C0A3E" rx="0" ry="0" transform="matrix(10.9717 0 0 10.9717 503.852 350.117)"/>
  <rect width="3.95" height="1.506" x="-1.975" y="-.753" fill="#0C0A3E" rx="0" ry="0" transform="matrix(10.9717 0 0 10.9717 503.852 383.142)"/>
  <rect width="3.95" height="1.506" x="-1.975" y="-.753" fill="#0C0A3E" rx="0" ry="0" transform="matrix(10.9717 0 0 10.9717 503.852 416.156)"/>
  <rect width="3.95" height="1.504" x="-1.975" y="-.752" fill="#0C0A3E" rx="0" ry="0" transform="matrix(10.9717 0 0 10.9717 503.852 449.17)"/>
  <path fill="#F34213" d="M150.13 223.81v-51.76h-17.6v-7.2h43.28v7.2h-17.6v51.76Z"/>
  <path fill="#F34213" d="M204.29 224.29q-5.76 0-10.12-1.12-4.36-1.12-7.28-4.16t-4.36-8.96q-1.44-5.92-1.44-15.52t1.44-15.56q1.44-5.96 4.4-9.12 2.96-3.16 7.28-4.32 4.32-1.16 10.08-1.16 5.92 0 10.28 1.16 4.36 1.16 7.24 4.32t4.32 9.12q1.44 5.96 1.44 15.56 0 9.6-1.44 15.52t-4.36 8.96q-2.92 3.04-7.28 4.16t-10.2 1.12m0-7.2q4.16 0 7.08-.88t4.72-3.24q1.8-2.36 2.6-6.8.8-4.44.8-11.64 0-7.6-.84-12.16-.84-4.56-2.6-6.88-1.76-2.32-4.68-3.12-2.92-.8-7.08-.8-3.92 0-6.8.8t-4.72 3.12q-1.84 2.32-2.76 6.88-.92 4.56-.92 12.16 0 7.2.76 11.64t2.56 6.8q1.8 2.36 4.72 3.24 2.92.88 7.16.88"/>
  <path fill="#F34213" d="M272.05 223.81v-51.76h-17.6v-7.2h43.28v7.2h-17.6v51.76Z"/>
  <path fill="#F34213" d="M304.85 223.81v-58.96h8.08v26.48h27.28v-26.48h8v58.96h-8v-25.28h-27.28v25.28Z"/>
  <path fill="#F34213" d="M373.01 224.13q-2 0-4.24-.36t-4.28-1.52q-2.04-1.16-3.32-3.56-1.28-2.4-1.28-6.48v-35.04q0-3.52 1.08-5.92t2.84-3.8q1.76-1.4 3.96-2 2.2-.6 4.36-.6 5.2.08 9.56.2 4.36.12 8.12.28 3.76.16 7.2.32v6.64h-22.72q-2.96 0-4.64 1.52-1.68 1.52-1.68 4.8v12.24l25.44.48v6.24l-25.44.56v12.08q0 2.72.92 4.08.92 1.36 2.4 1.84t3.16.48h22.56v6.64q-3.68.24-7.76.44t-8.2.32q-4.12.12-8.04.12"/>
  <path fill="#F34213" d="M159.59 296.13v-58.96h23.92q2.64 0 5.44.68 2.8.68 5.16 2.64 2.36 1.96 3.8 5.8t1.44 10.16q0 6.32-1.48 10.24t-3.88 6q-2.4 2.08-5.2 2.8-2.8.72-5.36.72-1.28 0-3.48-.08t-4.6-.24q-2.4-.16-4.48-.32-2.08-.16-3.2-.32v20.88Zm8.08-27.12h14.64q2.56 0 4.6-1.16 2.04-1.16 3.2-3.84 1.16-2.68 1.16-7.48 0-4.72-1.16-7.36-1.16-2.64-3.08-3.72-1.92-1.08-4.24-1.08h-15.12Z"/>
  <path fill="#F34213" d="M230.07 296.61q-5.76 0-10.12-1.12-4.36-1.12-7.28-4.16t-4.36-8.96q-1.44-5.92-1.44-15.52t1.44-15.56q1.44-5.96 4.4-9.12 2.96-3.16 7.28-4.32 4.32-1.16 10.08-1.16 5.92 0 10.28 1.16 4.36 1.16 7.24 4.32t4.32 9.12q1.44 5.96 1.44 15.56 0 9.6-1.44 15.52t-4.36 8.96q-2.92 3.04-7.28 4.16t-10.2 1.12m0-7.2q4.16 0 7.08-.88t4.72-3.24q1.8-2.36 2.6-6.8.8-4.44.8-11.64 0-7.6-.84-12.16-.84-4.56-2.6-6.88-1.76-2.32-4.68-3.12-2.92-.8-7.08-.8-3.92 0-6.8.8t-4.72 3.12q-1.84 2.32-2.76 6.88-.92 4.56-.92 12.16 0 7.2.76 11.64t2.56 6.8q1.8 2.36 4.72 3.24 2.92.88 7.16.88"/>
  <path fill="#F34213" d="M263.51 296.13v-58.96h8.08v58.96Z"/>
  <path fill="#F34213" d="M284.15 296.13v-58.96h6.56l28.88 45.2v-45.2h8v58.96h-6.48l-28.88-45.2v45.2Z"/>
  <path fill="#F34213" d="M351.43 296.13v-51.76h-17.6v-7.2h43.28v7.2h-17.6v51.76Z"/>
  <path fill="#F34213" d="M188.13 368.45v-51.76h-17.6v-7.2h43.28v7.2h-17.6v51.76Z"/>
  <path fill="#F34213" d="M233.25 368.77q-2 0-4.24-.36t-4.28-1.52q-2.04-1.16-3.32-3.56-1.28-2.4-1.28-6.48v-35.04q0-3.52 1.08-5.92t2.84-3.8q1.76-1.4 3.96-2 2.2-.6 4.36-.6 5.2.08 9.56.2 4.36.12 8.12.28 3.76.16 7.2.32v6.64h-22.72q-2.96 0-4.64 1.52-1.68 1.52-1.68 4.8v12.24l25.44.48v6.24l-25.44.56v12.08q0 2.72.92 4.08.92 1.36 2.4 1.84t3.16.48h22.56v6.64q-3.68.24-7.76.44t-8.2.32q-4.12.12-8.04.12"/>
  <path fill="#F34213" d="M286.85 368.93q-5.28 0-9.2-1.2-3.92-1.2-6.56-4.36-2.64-3.16-3.92-9.12-1.28-5.96-1.28-15.48 0-8.96 1.32-14.8t4-9.12q2.68-3.28 6.68-4.56 4-1.28 9.28-1.28 2.96 0 6.12.32t6.08.84q2.92.52 5.24 1.16v6.08q-1.44-.24-3.92-.52t-5.6-.48q-3.12-.2-6.48-.2-4 0-6.8.92t-4.56 3.36q-1.76 2.44-2.56 6.88-.8 4.44-.8 11.48 0 7.12.76 11.64.76 4.52 2.44 6.96 1.68 2.44 4.48 3.36 2.8.92 6.96.92 6 0 9.84-.32t6.24-.64v6.16q-2.4.56-5.28 1.04-2.88.48-6.04.72t-6.44.24"/>
  <path fill="#F34213" d="M313.89 368.45v-58.96h8.08v26.48h27.28v-26.48h8v58.96h-8v-25.28h-27.28v25.28Z"/>
  </g>
</svg>
