<svg xmlns="http://www.w3.org/2000/svg" width="2000" height="2000" viewBox="-20.24 -20.22 2000 2000">
    <path fill="#0B093D" d="M1741.21 1733.598H225.956V218.303H1741.21zm-1454.362-60.93h1393.43V279.233H286.847z"/>
    <path fill="#0B093D" d="M1573.68 1566.068H393.446V385.836h1180.236zm-1119.346-60.93H1512.75V446.767H454.334z"/>
    <rect width="1.505" height="3.949" x="-.752" y="-1.974" fill="#0B093D" transform="matrix(40.4856 0 0 40.4856 1657.445 100.328)"/>
    <rect width="1.504" height="3.949" x="-.752" y="-1.974" fill="#0B093D" transform="matrix(40.4856 0 0 40.4856 1535.626 100.328)"/>
    <rect width="1.505" height="3.949" x="-.752" y="-1.974" fill="#0B093D" transform="matrix(40.4856 0 0 40.4856 1413.802 100.328)"/>
    <rect width="1.505" height="3.949" x="-.752" y="-1.974" fill="#0B093D" transform="matrix(40.4856 0 0 40.4856 1291.98 100.328)"/>
    <rect width="1.505" height="3.949" x="-.752" y="-1.974" fill="#0B093D" transform="matrix(40.4856 0 0 40.4856 1162.55 100.328)"/>
    <rect width="1.505" height="3.949" x="-.752" y="-1.974" fill="#0B093D" transform="matrix(40.4856 0 0 40.4856 1040.688 100.328)"/>
    <rect width="1.505" height="3.949" x="-.752" y="-1.974" fill="#0B093D" transform="matrix(40.4856 0 0 40.4856 918.866 100.328)"/>
    <rect width="1.504" height="3.949" x="-.752" y="-1.974" fill="#0B093D" transform="matrix(40.4856 0 0 40.4856 797.006 100.328)"/>
    <rect width="1.504" height="3.949" x="-.752" y="-1.974" fill="#0B093D" transform="matrix(40.4856 0 0 40.4856 667.572 100.328)"/>
    <rect width="1.504" height="3.949" x="-.752" y="-1.974" fill="#0B093D" transform="matrix(40.4856 0 0 40.4856 545.713 100.328)"/>
    <rect width="1.505" height="3.949" x="-.752" y="-1.974" fill="#0B093D" transform="matrix(40.4856 0 0 40.4856 423.93 100.328)"/>
    <rect width="1.505" height="3.949" x="-.752" y="-1.974" fill="#0B093D" transform="matrix(40.4856 0 0 40.4856 302.108 100.328)"/>
    <rect width="1.505" height="3.949" x="-.752" y="-1.974" fill="#0B093D" transform="matrix(40.4856 0 0 40.4856 1657.445 1859.226)"/>
    <rect width="1.504" height="3.949" x="-.752" y="-1.974" fill="#0B093D" transform="matrix(40.4856 0 0 40.4856 1535.626 1859.226)"/>
    <rect width="1.505" height="3.949" x="-.752" y="-1.974" fill="#0B093D" transform="matrix(40.4856 0 0 40.4856 1413.802 1859.226)"/>
    <rect width="1.505" height="3.949" x="-.752" y="-1.974" fill="#0B093D" transform="matrix(40.4856 0 0 40.4856 1291.98 1859.226)"/>
    <rect width="1.505" height="3.949" x="-.752" y="-1.974" fill="#0B093D" transform="matrix(40.4856 0 0 40.4856 1162.55 1859.226)"/>
    <rect width="1.505" height="3.949" x="-.752" y="-1.974" fill="#0B093D" transform="matrix(40.4856 0 0 40.4856 1040.688 1859.226)"/>
    <rect width="1.505" height="3.949" x="-.752" y="-1.974" fill="#0B093D" transform="matrix(40.4856 0 0 40.4856 918.866 1859.226)"/>
    <rect width="1.504" height="3.949" x="-.752" y="-1.974" fill="#0B093D" transform="matrix(40.4856 0 0 40.4856 797.006 1859.226)"/>
    <rect width="1.504" height="3.949" x="-.752" y="-1.974" fill="#0B093D" transform="matrix(40.4856 0 0 40.4856 667.572 1859.226)"/>
    <rect width="1.504" height="3.949" x="-.752" y="-1.974" fill="#0B093D" transform="matrix(40.4856 0 0 40.4856 545.713 1859.226)"/>
    <rect width="1.505" height="3.949" x="-.752" y="-1.974" fill="#0B093D" transform="matrix(40.4856 0 0 40.4856 423.93 1859.226)"/>
    <rect width="1.505" height="3.949" x="-.752" y="-1.974" fill="#0B093D" transform="matrix(40.4856 0 0 40.4856 302.108 1859.226)"/>
    <rect width="3.95" height="1.504" x="-1.975" y="-.752" fill="#0B093D" transform="matrix(40.4856 0 0 40.4856 100.29 302.07)"/>
    <rect width="3.95" height="1.505" x="-1.975" y="-.752" fill="#0B093D" transform="matrix(40.4856 0 0 40.4856 100.29 423.974)"/>
    <rect width="3.95" height="1.505" x="-1.975" y="-.752" fill="#0B093D" transform="matrix(40.4856 0 0 40.4856 100.29 545.752)"/>
    <rect width="3.95" height="1.504" x="-1.975" y="-.752" fill="#0B093D" transform="matrix(40.4856 0 0 40.4856 100.29 667.572)"/>
    <rect width="3.95" height="1.505" x="-1.975" y="-.752" fill="#0B093D" transform="matrix(40.4856 0 0 40.4856 100.29 797.004)"/>
    <rect width="3.95" height="1.505" x="-1.975" y="-.752" fill="#0B093D" transform="matrix(40.4856 0 0 40.4856 100.29 918.826)"/>
    <rect width="3.95" height="1.505" x="-1.975" y="-.752" fill="#0B093D" transform="matrix(40.4856 0 0 40.4856 100.29 1040.728)"/>
    <rect width="3.95" height="1.505" x="-1.975" y="-.752" fill="#0B093D" transform="matrix(40.4856 0 0 40.4856 100.29 1162.55)"/>
    <rect width="3.95" height="1.504" x="-1.975" y="-.752" fill="#0B093D" transform="matrix(40.4856 0 0 40.4856 100.29 1291.942)"/>
    <rect width="3.95" height="1.506" x="-1.975" y="-.753" fill="#0B093D" transform="matrix(40.4856 0 0 40.4856 100.29 1413.804)"/>
    <rect width="3.95" height="1.506" x="-1.975" y="-.753" fill="#0B093D" transform="matrix(40.4856 0 0 40.4856 100.29 1535.626)"/>
    <rect width="3.95" height="1.504" x="-1.975" y="-.752" fill="#0B093D" transform="matrix(40.4856 0 0 40.4856 100.29 1657.447)"/>
    <rect width="3.95" height="1.504" x="-1.975" y="-.752" fill="#0B093D" transform="matrix(40.4856 0 0 40.4856 1859.224 302.07)"/>
    <rect width="3.95" height="1.505" x="-1.975" y="-.752" fill="#0B093D" transform="matrix(40.4856 0 0 40.4856 1859.224 423.974)"/>
    <rect width="3.95" height="1.505" x="-1.975" y="-.752" fill="#0B093D" transform="matrix(40.4856 0 0 40.4856 1859.224 545.752)"/>
    <rect width="3.95" height="1.504" x="-1.975" y="-.752" fill="#0B093D" transform="matrix(40.4856 0 0 40.4856 1859.224 667.572)"/>
    <rect width="3.95" height="1.505" x="-1.975" y="-.752" fill="#0B093D" transform="matrix(40.4856 0 0 40.4856 1859.224 797.004)"/>
    <rect width="3.95" height="1.505" x="-1.975" y="-.752" fill="#0B093D" transform="matrix(40.4856 0 0 40.4856 1859.224 918.826)"/>
    <rect width="3.95" height="1.505" x="-1.975" y="-.752" fill="#0B093D" transform="matrix(40.4856 0 0 40.4856 1859.224 1040.728)"/>
    <rect width="3.95" height="1.505" x="-1.975" y="-.752" fill="#0B093D" transform="matrix(40.4856 0 0 40.4856 1859.224 1162.55)"/>
    <rect width="3.95" height="1.504" x="-1.975" y="-.752" fill="#0B093D" transform="matrix(40.4856 0 0 40.4856 1859.224 1291.942)"/>
    <rect width="3.95" height="1.506" x="-1.975" y="-.753" fill="#0B093D" transform="matrix(40.4856 0 0 40.4856 1859.224 1413.804)"/>
    <rect width="3.95" height="1.506" x="-1.975" y="-.753" fill="#0B093D" transform="matrix(40.4856 0 0 40.4856 1859.224 1535.626)"/>
    <rect width="3.95" height="1.504" x="-1.975" y="-.752" fill="#0B093D" transform="matrix(40.4856 0 0 40.4856 1859.224 1657.447)"/>
    <g fill="#F34212" transform="translate(-355.84 396.14) scale(1.38)">
        <path d="M615.861 147.073h116.038v19.993l-.996 1.003h-46.015v136.94h-23.012v-136.94h-46.015Z"/>
        <path d="M796.927 146.078h19.003l15.012 1.998 12 3.997 8 5.996 7.004 7.994 6 13.002 4 19.985 1.004 13.002v28.981l-2 19.993-4 15.996-7.004 12.994-9.004 7.994-8 3.997-12 3.002-7.004 1.003h-26.015l-17.004-3.002-12-5.995-6.008-5-6-8.998-5.004-13.989-2.996-19.993V204.05l2.996-18.99 5.004-14.992 8-10.996 10.008-6.999 12-3.997Zm3.003 19.985-14.007 3.001-9.004 6.004-6 11.99-3.004 11.992-.996 9.005v37.979l2 13.997 4 11.99 7.004 7.995 8 3.997 9.003 2.006h19.004l12-3.002 6.008-3.997 6-6.998 4-10.996 2.008-12.994v-42.98l-3.004-16.99-4-10-7.004-6.999-11.004-3.997-8-.995Z"/>
        <path d="M938.98 147.073h116.04v20.996H1008v136.94h-22.008v-136.94h-47.011Z"/>
        <path d="M1073.027 147.073h22.008v70.974h72.023v-70.974h22.008V305.01h-22.008v-66.97h-72.023v66.97h-22.008Z"/>
        <path d="M1250.093 147.073l42.015 1.003 25.004.996 1.004 1.003v17.994l-64.023.995-9.004 3.002-3.004 9.993-.996 33.99 59.02.995 9.003 1.003v16.991l-13.004 1.003-55.019.996.996 33.99 3.004 8.997 5.004 2.993 4 1.004 64.023.995v17.994l-3.004 1.003-47.011 1.999h-18.008l-12-1.999-10.008-5-5.004-5.995-4-10.996v-108.96l2.996-9.993 6.008-7.994 10-6.003Z"/>
    </g>
    <g fill="#F34212" transform="translate(-1352.2 672.14) scale(1.38)">
        <path d="M1401.143 147.073h65.02l14.007 1.999 9.004 3.997 6.008 3.997 6 9.005 4 9.992 2 11.991v21.999l-3.004 15.988-6.996 12.994-8 6.999-8.008 3.997-10.008 1.998h-21.003l-27.012-1.998v54.978h-22.008Zm22.008 19.993v64.97h42.015l9.004-2.993 7.004-7.994 3.004-8.997.996-15.996-2-12.994-4-7.994-7.004-6.004-10-1.998Z"/>
        <path d="M1579.213 146.078h19.004l19.004 2.994 12 6.003 7.011 5.996 6 9.992 4 10 3.004 14.993.996 8.997v42.98l-2.996 19.992-4 11.99-5.004 9.006-8 7.994-12.007 5.995-17.004 3.002h-26.016l-16-3.002-9.004-3.997-8-5.995-5.004-6.004-5.003-9.992-4-14.993-2-18.99v-31.99l2-18.99 4-15.988 6-11.999 9.003-8.997 10.008-5 13.004-3.002Zm2.996 19.985-12 2.006-8 3.997-7.004 7.994-4 10.996-2.008 10.995-.996 12.994v22.995l2 19.985 4 13.001 6 7.994 6 3.997 13.012 3.002h18l13.004-3.002 8-5.995 5.011-7.994 2.996-10.996 2-16.999v-28.981l-2-17.995-4-12.994-6-7.994-6.007-3.997-6.996-2.006-8-.995Z"/>
        <path d="M1676.248 147.073h23.004V305.01h-23.004Z"/>
        <path d="M1731.267 147.073h18.008l6.996 10 14.008 21.992 16 24.985 16.007 24.993 14.008 21.99 8 11.992 1.004-115.952h22.008V305.01h-18.008l-15.004-22.987-14.008-21.991-16-24.993-14.007-21.991-16-24.985-1.004 116.947h-22.008Z"/>
        <path d="M1863.314 147.073h116.038v19.993l-.996 1.003h-46.015v136.94h-22.008v-136.94h-47.02Z"/>
    </g>
    <g fill="#F34212" transform="translate(-211.63 674.18) scale(1.38)">
        <path d="M615.86 338.998H731.9v19.993h-47.012v137.943h-23.012V358.999h-46.015Z"/>
        <path d="M775.923 338.998l49.019 1.004 22 .995v18.997l-65.02.996-7.003 3.001-4 5.996-1.004 37.987 65.02.995 2.007 1.003v16.991l-19.012 1.003-47.011.996v36.991l3.004 5.996 4.996 2.994 5.004 1.003 63.019.995v17.994l-6 1.003-19.004.996-40.015 1.003-15.004-1.999-9.004-3.997-8-8.997-2.008-6.003-.996-7.994V367.988l2.996-11.99 6.008-8.998 10-6.003Z"/>
        <path d="M915.969 338.003h21.004l23.012 2.994 12 3.002v16.99l-15.004-.995-13.004-1.003h-22.008l-13.004 3.002-7.004 5-4.996 8.99-3.004 10-2 14.992v33.99l2 15.988 4 11.99 4 6.004 5.004 3.997 8 3.002 7.004.995h26.008l24.015-1.998v17.994l-21.011 3.997-12 1.003h-24.008l-16.008-3.002-10.008-5-8-7.994-7.003-13.997-2.997-11.991-2-16.991v-41.984l2.997-19.993 5.003-14.992 6-8.997 7.004-6.999 10-5Z"/>
        <path d="M996 338.998h22.008v70.974h72.023v-70.974h22.008v157.936h-22.008v-66.97h-72.023v66.97H996Z"/>
    </g>
</svg>
